<svg width="338" height="338" viewBox="0 0 338 338" fill="none" xmlns="http://www.w3.org/2000/svg">
<mask id="mask0_66_1219" style="mask-type:luminance" maskUnits="userSpaceOnUse" x="11" y="43" width="316" height="273">
<path d="M327 43H11V315.702H327V43Z" fill="white"/>
</mask>
<g mask="url(#mask0_66_1219)">
<path d="M69.6848 132.074L118.318 144.19L171.771 110.688L95.0583 112.586C94.3058 112.614 93.5758 112.816 92.9438 113.17L68.6699 125.213C67.9148 125.574 67.3026 126.122 66.9125 126.787C66.5223 127.452 66.3722 128.201 66.4815 128.94C66.5908 129.68 66.9545 130.373 67.5256 130.932C68.0967 131.49 68.8488 131.888 69.6848 132.074Z" fill="#9ECAFF"/>
<path d="M308.787 94.5546L255.502 84.628C251.021 83.7885 246.383 83.7907 241.902 84.6345C237.423 85.4783 233.205 87.1439 229.537 89.5184L68.5839 190.463L29.9315 189.003C27.7176 188.938 25.5359 189.475 23.6946 190.538C21.8532 191.601 20.4453 193.136 19.6695 194.926C18.8937 196.717 18.7893 198.672 19.371 200.517C19.9528 202.362 21.1912 204.002 22.9115 205.207L60.5489 230.972C61.1685 231.404 61.9061 231.69 62.691 231.805C63.4758 231.921 64.2817 231.86 65.0316 231.629C75.7731 228.052 115.778 209.732 163.058 187.324L172.531 271.336C172.611 272.063 172.92 272.757 173.425 273.345C173.929 273.932 174.61 274.389 175.393 274.668C176.176 274.945 177.033 275.033 177.87 274.922C178.707 274.81 179.493 274.504 180.143 274.036L201.287 258.854C202.445 258.017 203.224 256.854 203.487 255.57L223.532 158.566C257.363 142.363 289.672 126.67 312.424 115.576C314.785 114.467 316.694 112.759 317.893 110.682C319.09 108.606 319.521 106.262 319.123 103.968C318.726 101.673 317.522 99.5398 315.673 97.8561C313.824 96.1724 311.421 95.0198 308.787 94.5546Z" fill="#69BEFF"/>
<path d="M308.787 94.5546L255.502 84.628C251.021 83.7885 246.383 83.7907 241.902 84.6345C237.423 85.4783 233.205 87.1439 229.537 89.5184L68.5839 190.463L29.9315 189.003C27.7176 188.938 25.5359 189.475 23.6946 190.538C21.8532 191.601 20.4453 193.136 19.6695 194.926C18.8937 196.717 18.7893 198.672 19.371 200.517C19.9528 202.362 21.1912 204.002 22.9115 205.207L60.5489 230.972C61.1685 231.404 61.9061 231.69 62.691 231.805C63.4758 231.921 64.2817 231.86 65.0316 231.629C75.7731 228.052 115.778 209.732 163.058 187.324L172.531 271.336C172.611 272.063 172.92 272.757 173.425 273.345C173.929 273.932 174.61 274.389 175.393 274.668C176.176 274.945 177.033 275.033 177.87 274.922C178.707 274.81 179.493 274.504 180.143 274.036L201.287 258.854C202.445 258.017 203.224 256.854 203.487 255.57L223.532 158.566C257.363 142.363 289.672 126.67 312.424 115.576C314.785 114.467 316.694 112.759 317.893 110.682C319.09 108.606 319.521 106.262 319.123 103.968C318.726 101.673 317.522 99.5398 315.673 97.8561C313.824 96.1724 311.421 95.0198 308.787 94.5546Z" fill="url(#paint0_linear_66_1219)" fill-opacity="0.6"/>
</g>
<defs>
<linearGradient id="paint0_linear_66_1219" x1="218.119" y1="125.138" x2="347.362" y2="102.284" gradientUnits="userSpaceOnUse">
<stop stop-color="#D2F7FF" stop-opacity="0"/>
<stop offset="0.987093" stop-color="#D2F7FF"/>
</linearGradient>
</defs>
</svg>
