<svg width="338" height="338" viewBox="0 0 338 338" fill="none" xmlns="http://www.w3.org/2000/svg">
<rect width="338" height="338" rx="41" fill="white"/>
<mask id="mask0_66_1229" style="mask-type:luminance" maskUnits="userSpaceOnUse" x="58" y="80" width="223" height="192">
<path d="M280.287 80.1509H58.7129V271.365H280.287V80.1509Z" fill="white"/>
</mask>
<g mask="url(#mask0_66_1229)">
<path d="M99.8618 142.608L133.963 151.104L171.443 127.613L117.653 128.943C117.126 128.963 116.614 129.105 116.171 129.353L99.1501 137.797C98.6207 138.05 98.1914 138.435 97.9179 138.901C97.6443 139.367 97.539 139.892 97.6157 140.411C97.6923 140.929 97.9473 141.415 98.3478 141.807C98.7482 142.199 99.2756 142.478 99.8618 142.608Z" fill="#9ECAFF"/>
<path d="M267.516 116.3L230.154 109.34C227.012 108.751 223.759 108.753 220.617 109.344C217.477 109.936 214.519 111.104 211.947 112.769L99.0897 183.549L71.9873 182.526C70.4349 182.48 68.9051 182.857 67.6141 183.602C66.3229 184.347 65.3357 185.424 64.7917 186.679C64.2477 187.935 64.1745 189.306 64.5824 190.599C64.9904 191.893 65.8587 193.043 67.065 193.888L93.4557 211.954C93.8901 212.257 94.4073 212.457 94.9577 212.538C95.508 212.619 96.0731 212.576 96.5989 212.414C104.131 209.906 132.181 197.061 165.333 181.348L171.976 240.256C172.032 240.766 172.248 241.253 172.603 241.665C172.956 242.077 173.433 242.397 173.982 242.593C174.531 242.787 175.132 242.849 175.719 242.771C176.306 242.692 176.857 242.478 177.313 242.15L192.139 231.504C192.951 230.917 193.497 230.102 193.682 229.201L207.737 161.184C231.458 149.823 254.113 138.819 270.066 131.04C271.722 130.262 273.06 129.065 273.901 127.608C274.74 126.153 275.043 124.509 274.764 122.901C274.485 121.291 273.641 119.796 272.344 118.615C271.048 117.434 269.363 116.626 267.516 116.3Z" fill="#69BEFF"/>
<path d="M267.516 116.3L230.154 109.34C227.012 108.751 223.759 108.753 220.617 109.344C217.477 109.936 214.519 111.104 211.947 112.769L99.0897 183.549L71.9873 182.526C70.4349 182.48 68.9051 182.857 67.6141 183.602C66.3229 184.347 65.3357 185.424 64.7917 186.679C64.2477 187.935 64.1745 189.306 64.5824 190.599C64.9904 191.893 65.8587 193.043 67.065 193.888L93.4557 211.954C93.8901 212.257 94.4073 212.457 94.9577 212.538C95.508 212.619 96.0731 212.576 96.5989 212.414C104.131 209.906 132.181 197.061 165.333 181.348L171.976 240.256C172.032 240.766 172.248 241.253 172.603 241.665C172.956 242.077 173.433 242.397 173.982 242.593C174.531 242.787 175.132 242.849 175.719 242.771C176.306 242.692 176.857 242.478 177.313 242.15L192.139 231.504C192.951 230.917 193.497 230.102 193.682 229.201L207.737 161.184C231.458 149.823 254.113 138.819 270.066 131.04C271.722 130.262 273.06 129.065 273.901 127.608C274.74 126.153 275.043 124.509 274.764 122.901C274.485 121.291 273.641 119.796 272.344 118.615C271.048 117.434 269.363 116.626 267.516 116.3Z" fill="url(#paint0_linear_66_1229)" fill-opacity="0.6"/>
</g>
<defs>
<linearGradient id="paint0_linear_66_1229" x1="203.941" y1="137.745" x2="294.564" y2="121.72" gradientUnits="userSpaceOnUse">
<stop stop-color="#D2F7FF" stop-opacity="0"/>
<stop offset="0.987093" stop-color="#D2F7FF"/>
</linearGradient>
</defs>
</svg>
