<svg width="32" height="32" viewBox="0 0 32 32" fill="none" xmlns="http://www.w3.org/2000/svg">
<path d="M16 27.9999L14.0666 26.2665C11.8222 24.2443 9.96663 22.4999 8.49996 21.0332C7.03329 19.5665 5.86663 18.2499 4.99996 17.0832C4.13329 15.9165 3.52774 14.8443 3.18329 13.8665C2.83885 12.8888 2.66663 11.8888 2.66663 10.8665C2.66663 8.77765 3.36663 7.0332 4.76663 5.6332C6.16663 4.2332 7.91107 3.5332 9.99996 3.5332C11.1555 3.5332 12.2555 3.77765 13.3 4.26654C14.3444 4.75543 15.2444 5.44431 16 6.3332C16.7555 5.44431 17.6555 4.75543 18.7 4.26654C19.7444 3.77765 20.8444 3.5332 22 3.5332C24.0888 3.5332 25.8333 4.2332 27.2333 5.6332C28.6333 7.0332 29.3333 8.77765 29.3333 10.8665C29.3333 11.8888 29.1611 12.8888 28.8166 13.8665C28.4722 14.8443 27.8666 15.9165 27 17.0832C26.1333 18.2499 24.9666 19.5665 23.5 21.0332C22.0333 22.4999 20.1777 24.2443 17.9333 26.2665L16 27.9999ZM16 24.3999C18.1333 22.4888 19.8888 20.8499 21.2666 19.4832C22.6444 18.1165 23.7333 16.9276 24.5333 15.9165C25.3333 14.9054 25.8888 14.0054 26.2 13.2165C26.5111 12.4276 26.6666 11.6443 26.6666 10.8665C26.6666 9.5332 26.2222 8.42209 25.3333 7.5332C24.4444 6.64431 23.3333 6.19987 22 6.19987C20.9555 6.19987 19.9888 6.49431 19.1 7.0832C18.2111 7.67209 17.6 8.42209 17.2666 9.3332H14.7333C14.4 8.42209 13.7888 7.67209 12.9 7.0832C12.0111 6.49431 11.0444 6.19987 9.99996 6.19987C8.66663 6.19987 7.55551 6.64431 6.66663 7.5332C5.77774 8.42209 5.33329 9.5332 5.33329 10.8665C5.33329 11.6443 5.48885 12.4276 5.79996 13.2165C6.11107 14.0054 6.66663 14.9054 7.46663 15.9165C8.26663 16.9276 9.35551 18.1165 10.7333 19.4832C12.1111 20.8499 13.8666 22.4888 16 24.3999Z" fill="#D4D4D8"/>
</svg>
