<svg preserveAspectRatio="xMidYMid meet" width="100%" height="100%" overflow="visible" style="display: block;" viewBox="0 0 42.6415 27.1198" fill="none" xmlns="http://www.w3.org/2000/svg">
<g id="Group">
<path id="Vector" d="M7.19784 6.82708L14.1043 8.54769L21.6953 3.79001L10.8012 4.05955C10.6943 4.06353 10.5906 4.09221 10.5009 4.14248L7.05372 5.85273C6.94648 5.904 6.85954 5.98182 6.80414 6.07626C6.74873 6.1707 6.72742 6.27706 6.74294 6.38201C6.75846 6.4871 6.81011 6.58551 6.89121 6.6649C6.97231 6.74414 7.07912 6.80066 7.19784 6.82708Z" fill="var(--fill-0, #9ECAFF)"/>
<path id="Vector_2" d="M41.1532 1.49888L33.5861 0.0891822C32.9497 -0.0300367 32.2911 -0.0297242 31.6547 0.0901054C31.0187 0.209935 30.4196 0.44647 29.8987 0.783677L7.0415 15.119L1.5524 14.9117C1.238 14.9024 0.928177 14.9787 0.666691 15.1297C0.40519 15.2806 0.205252 15.4986 0.0950794 15.7528C-0.0150934 16.0071 -0.0299195 16.2848 0.0526888 16.5468C0.135311 16.8088 0.311179 17.0417 0.555482 17.2128L5.90044 20.8718C5.98843 20.9331 6.09318 20.9737 6.20464 20.9901C6.31609 21.0065 6.43054 20.9979 6.53703 20.9651C8.06245 20.4571 13.7436 17.8554 20.4579 14.6732L21.8032 26.6039C21.8146 26.7072 21.8585 26.8057 21.9302 26.8892C22.0018 26.9726 22.0985 27.0375 22.2097 27.0771C22.3209 27.1164 22.4426 27.1289 22.5614 27.1132C22.6803 27.0973 22.7919 27.0538 22.8842 26.9874L25.8869 24.8313C26.0514 24.7125 26.162 24.5473 26.1993 24.365L29.046 10.5893C33.8504 8.28824 38.4386 6.05964 41.6697 4.48416C42.005 4.32667 42.2761 4.08412 42.4463 3.78916C42.6163 3.49434 42.6775 3.16147 42.621 2.83569C42.5646 2.50977 42.3937 2.20683 42.1311 1.96773C41.8685 1.72862 41.5272 1.56494 41.1532 1.49888Z" fill="var(--fill-0, #69BEFF)"/>
<path id="Vector_3" d="M41.1532 1.49888L33.5861 0.0891822C32.9497 -0.0300367 32.2911 -0.0297242 31.6547 0.0901054C31.0187 0.209935 30.4196 0.44647 29.8987 0.783677L7.0415 15.119L1.5524 14.9117C1.238 14.9024 0.928177 14.9787 0.666691 15.1297C0.40519 15.2806 0.205252 15.4986 0.0950794 15.7528C-0.0150934 16.0071 -0.0299195 16.2848 0.0526888 16.5468C0.135311 16.8088 0.311179 17.0417 0.555482 17.2128L5.90044 20.8718C5.98843 20.9331 6.09318 20.9737 6.20464 20.9901C6.31609 21.0065 6.43054 20.9979 6.53703 20.9651C8.06245 20.4571 13.7436 17.8554 20.4579 14.6732L21.8032 26.6039C21.8146 26.7072 21.8585 26.8057 21.9302 26.8892C22.0018 26.9726 22.0985 27.0375 22.2097 27.0771C22.3209 27.1164 22.4426 27.1289 22.5614 27.1132C22.6803 27.0973 22.7919 27.0538 22.8842 26.9874L25.8869 24.8313C26.0514 24.7125 26.162 24.5473 26.1993 24.365L29.046 10.5893C33.8504 8.28824 38.4386 6.05964 41.6697 4.48416C42.005 4.32667 42.2761 4.08412 42.4463 3.78916C42.6163 3.49434 42.6775 3.16147 42.621 2.83569C42.5646 2.50977 42.3937 2.20683 42.1311 1.96773C41.8685 1.72862 41.5272 1.56494 41.1532 1.49888Z" fill="url(#paint0_linear_0_17)" fill-opacity="0.6"/>
</g>
<defs>
<linearGradient id="paint0_linear_0_17" x1="28.2773" y1="5.84208" x2="46.6313" y2="2.59654" gradientUnits="userSpaceOnUse">
<stop stop-color="#D2F7FF" stop-opacity="0"/>
<stop offset="0.987093" stop-color="#D2F7FF"/>
</linearGradient>
</defs>
</svg>
