<svg width="143" height="29" viewBox="0 0 143 29" fill="none" xmlns="http://www.w3.org/2000/svg">
<path d="M3.03909e-05 22.0052V0.000194669H3.91503L11.502 12.3122L19.089 0.000194669H23.004V22.0052H18.09V9.93619L12.987 18.3872H10.017L4.91403 9.93619V22.0052H3.03909e-05ZM34.3466 5.80519C39.2336 5.80519 42.7436 9.28819 42.7436 14.0942C42.7436 18.9002 39.2336 22.3832 34.3466 22.3832C29.4596 22.3832 25.9496 18.9002 25.9496 14.0942C25.9496 9.28819 29.4596 5.80519 34.3466 5.80519ZM34.3466 9.9092C32.0786 9.9092 30.5936 11.6642 30.5936 14.0942C30.5936 16.5242 32.0786 18.2792 34.3466 18.2792C36.6146 18.2792 38.0996 16.5242 38.0996 14.0942C38.0996 11.6642 36.6146 9.9092 34.3466 9.9092ZM60.3284 0.000194669H65.2424V22.0052H60.3284V13.0682H50.6084V22.0052H45.6944V0.000194669H50.6084V8.7212H60.3284V0.000194669ZM75.8848 22.3832C71.3488 22.3832 68.1898 18.9002 68.1898 14.0942C68.1898 9.28819 71.3488 5.80519 75.8848 5.80519C77.9638 5.80519 79.4758 6.5342 80.4208 7.80319V6.18319H85.2268V22.0052H80.4208V20.3852C79.4758 21.6542 77.9638 22.3832 75.8848 22.3832ZM76.6408 18.2792C78.9898 18.2792 80.5018 16.5242 80.5018 14.0942C80.5018 11.6642 78.9898 9.9092 76.6408 9.9092C74.3458 9.9092 72.8878 11.6642 72.8878 14.0942C72.8878 16.5242 74.3458 18.2792 76.6408 18.2792ZM96.2793 22.3832C91.4463 22.3832 88.0443 18.9272 88.0443 14.0942C88.0443 9.28819 91.4463 5.80519 96.2793 5.80519C101.112 5.80519 104.514 9.26119 104.514 14.0942C104.514 14.5532 104.487 15.0662 104.406 15.6332H92.8233C93.2013 17.4692 94.4703 18.5222 96.2793 18.5222C97.6563 18.5222 98.7903 18.0362 99.1953 17.2802H104.028C103.218 20.3042 100.113 22.3832 96.2793 22.3832ZM92.7963 12.5282H99.8163C99.4113 10.6382 98.1693 9.61219 96.2793 9.61219C94.3893 9.61219 93.2013 10.6382 92.7963 12.5282ZM107.338 22.0052V6.18319H112.144V7.80319C113.089 6.5342 114.547 5.80519 116.572 5.80519C120.244 5.80519 122.755 8.47819 122.755 12.8522V22.0052H117.949V13.6622C117.949 11.2592 116.977 9.93619 115.168 9.93619C113.278 9.93619 112.144 11.4212 112.144 13.8782V22.0052H107.338ZM134.079 28.9712C129.381 28.9712 126.789 26.2982 126.276 23.2472H131.136C131.379 24.2732 132.297 24.9212 134.079 24.9212C136.077 24.9212 137.427 23.6252 137.427 21.6542V19.9802C136.482 21.2492 134.97 21.9782 132.891 21.9782C128.355 21.9782 125.196 18.6032 125.196 13.9592C125.196 9.23419 128.355 5.80519 132.891 5.80519C134.97 5.80519 136.482 6.5342 137.427 7.80319V6.18319H142.233V21.7082C142.233 26.0012 138.804 28.9712 134.079 28.9712ZM133.647 18.0092C135.996 18.0092 137.508 16.3082 137.508 13.9592C137.508 11.6102 135.996 9.9092 133.647 9.9092C131.352 9.9092 129.894 11.6102 129.894 13.9592C129.894 16.3082 131.352 18.0092 133.647 18.0092Z" fill="#00CCFF"/>
</svg>
