<svg width="32" height="32" viewBox="0 0 32 32" fill="none" xmlns="http://www.w3.org/2000/svg">
<path d="M16 27.9999L14.0666 26.2665C11.8222 24.2443 9.96663 22.4999 8.49996 21.0332C7.03329 19.5665 5.86663 18.2499 4.99996 17.0832C4.13329 15.9165 3.52774 14.8443 3.18329 13.8665C2.83885 12.8888 2.66663 11.8888 2.66663 10.8665C2.66663 8.77765 3.36663 7.0332 4.76663 5.6332C6.16663 4.2332 7.91107 3.5332 9.99996 3.5332C11.1555 3.5332 12.2555 3.77765 13.3 4.26654C14.3444 4.75543 15.2444 5.44431 16 6.3332C16.7555 5.44431 17.6555 4.75543 18.7 4.26654C19.7444 3.77765 20.8444 3.5332 22 3.5332C24.0889 3.5332 25.8333 4.2332 27.2333 5.6332C28.6333 7.0332 29.3333 8.77765 29.3333 10.8665C29.3333 11.8888 29.1611 12.8888 28.8166 13.8665C28.4722 14.8443 27.8666 15.9165 27 17.0832C26.1333 18.2499 24.9666 19.5665 23.5 21.0332C22.0333 22.4999 20.1777 24.2443 17.9333 26.2665L16 27.9999Z" fill="#FF2D55"/>
</svg>
